<mxfile host="Electron" agent="Mozilla/5.0 (Windows NT 10.0; Win64; x64) AppleWebKit/537.36 (KHTML, like Gecko) draw.io/28.0.6 Chrome/138.0.7204.100 Electron/37.2.3 Safari/537.36" version="28.0.6">
  <diagram name="Sayfa -1" id="IDAEFWOsYxgJQWsKytU8">
    <mxGraphModel dx="1408" dy="823" grid="1" gridSize="10" guides="1" tooltips="1" connect="1" arrows="1" fold="1" page="1" pageScale="1" pageWidth="1654" pageHeight="2336" math="0" shadow="0">
      <root>
        <mxCell id="0" />
        <mxCell id="1" parent="0" />
        <mxCell id="57u8Hl91U_zPTX2pg8Y3-12" style="edgeStyle=orthogonalEdgeStyle;rounded=0;orthogonalLoop=1;jettySize=auto;html=1;exitX=0.5;exitY=1;exitDx=0;exitDy=0;entryX=0.5;entryY=0;entryDx=0;entryDy=0;" edge="1" parent="1" source="57u8Hl91U_zPTX2pg8Y3-1" target="57u8Hl91U_zPTX2pg8Y3-2">
          <mxGeometry relative="1" as="geometry" />
        </mxCell>
        <mxCell id="57u8Hl91U_zPTX2pg8Y3-1" value="Başla" style="ellipse;whiteSpace=wrap;html=1;fillColor=#f8cecc;strokeColor=#b85450;" vertex="1" parent="1">
          <mxGeometry x="550" y="40" width="120" height="80" as="geometry" />
        </mxCell>
        <mxCell id="57u8Hl91U_zPTX2pg8Y3-13" style="edgeStyle=orthogonalEdgeStyle;rounded=0;orthogonalLoop=1;jettySize=auto;html=1;exitX=0.5;exitY=1;exitDx=0;exitDy=0;entryX=0.5;entryY=0;entryDx=0;entryDy=0;" edge="1" parent="1" source="57u8Hl91U_zPTX2pg8Y3-2" target="57u8Hl91U_zPTX2pg8Y3-3">
          <mxGeometry relative="1" as="geometry" />
        </mxCell>
        <mxCell id="57u8Hl91U_zPTX2pg8Y3-2" value="Kullanıcı Dosya Yükleme İsteği Yollar" style="rounded=1;whiteSpace=wrap;html=1;fillColor=#dae8fc;strokeColor=#6c8ebf;" vertex="1" parent="1">
          <mxGeometry x="550" y="290" width="120" height="60" as="geometry" />
        </mxCell>
        <mxCell id="57u8Hl91U_zPTX2pg8Y3-14" value="Hayır" style="edgeStyle=orthogonalEdgeStyle;rounded=0;orthogonalLoop=1;jettySize=auto;html=1;exitX=1;exitY=0.5;exitDx=0;exitDy=0;entryX=0;entryY=0.5;entryDx=0;entryDy=0;" edge="1" parent="1" source="57u8Hl91U_zPTX2pg8Y3-3" target="57u8Hl91U_zPTX2pg8Y3-4">
          <mxGeometry relative="1" as="geometry" />
        </mxCell>
        <mxCell id="57u8Hl91U_zPTX2pg8Y3-15" value="Evet" style="edgeStyle=orthogonalEdgeStyle;rounded=0;orthogonalLoop=1;jettySize=auto;html=1;exitX=0.5;exitY=1;exitDx=0;exitDy=0;entryX=0.5;entryY=0;entryDx=0;entryDy=0;" edge="1" parent="1" source="57u8Hl91U_zPTX2pg8Y3-3" target="57u8Hl91U_zPTX2pg8Y3-5">
          <mxGeometry relative="1" as="geometry" />
        </mxCell>
        <mxCell id="57u8Hl91U_zPTX2pg8Y3-3" value="Dosya Uygun mu?" style="rhombus;whiteSpace=wrap;html=1;fillColor=#fff2cc;strokeColor=#d6b656;" vertex="1" parent="1">
          <mxGeometry x="550" y="440" width="130" height="80" as="geometry" />
        </mxCell>
        <mxCell id="57u8Hl91U_zPTX2pg8Y3-4" value="Hata Mesajı Döndürür" style="rounded=1;whiteSpace=wrap;html=1;fillColor=#dae8fc;strokeColor=#6c8ebf;" vertex="1" parent="1">
          <mxGeometry x="850" y="450" width="120" height="60" as="geometry" />
        </mxCell>
        <mxCell id="57u8Hl91U_zPTX2pg8Y3-16" style="edgeStyle=orthogonalEdgeStyle;rounded=0;orthogonalLoop=1;jettySize=auto;html=1;exitX=0.5;exitY=1;exitDx=0;exitDy=0;entryX=0.5;entryY=0;entryDx=0;entryDy=0;" edge="1" parent="1" source="57u8Hl91U_zPTX2pg8Y3-5" target="57u8Hl91U_zPTX2pg8Y3-6">
          <mxGeometry relative="1" as="geometry" />
        </mxCell>
        <mxCell id="57u8Hl91U_zPTX2pg8Y3-5" value="Dosya Google Cloud Service&#39;e yüklenir" style="rounded=1;whiteSpace=wrap;html=1;fillColor=#dae8fc;strokeColor=#6c8ebf;" vertex="1" parent="1">
          <mxGeometry x="560" y="670" width="120" height="60" as="geometry" />
        </mxCell>
        <mxCell id="57u8Hl91U_zPTX2pg8Y3-17" style="edgeStyle=orthogonalEdgeStyle;rounded=0;orthogonalLoop=1;jettySize=auto;html=1;exitX=0.5;exitY=1;exitDx=0;exitDy=0;entryX=0.5;entryY=0;entryDx=0;entryDy=0;" edge="1" parent="1" source="57u8Hl91U_zPTX2pg8Y3-6" target="57u8Hl91U_zPTX2pg8Y3-8">
          <mxGeometry relative="1" as="geometry" />
        </mxCell>
        <mxCell id="57u8Hl91U_zPTX2pg8Y3-6" value="Metadata Redis&#39;e yazılır" style="rounded=1;whiteSpace=wrap;html=1;fillColor=#dae8fc;strokeColor=#6c8ebf;" vertex="1" parent="1">
          <mxGeometry x="560" y="870" width="120" height="60" as="geometry" />
        </mxCell>
        <mxCell id="57u8Hl91U_zPTX2pg8Y3-8" value="PostgreSQL&#39;e log kaydı yapılır" style="rounded=1;whiteSpace=wrap;html=1;fillColor=#dae8fc;strokeColor=#6c8ebf;" vertex="1" parent="1">
          <mxGeometry x="560" y="1070" width="120" height="60" as="geometry" />
        </mxCell>
        <mxCell id="57u8Hl91U_zPTX2pg8Y3-19" style="edgeStyle=orthogonalEdgeStyle;rounded=0;orthogonalLoop=1;jettySize=auto;html=1;exitX=0.5;exitY=1;exitDx=0;exitDy=0;entryX=0.5;entryY=0;entryDx=0;entryDy=0;" edge="1" parent="1" source="57u8Hl91U_zPTX2pg8Y3-9" target="57u8Hl91U_zPTX2pg8Y3-10">
          <mxGeometry relative="1" as="geometry" />
        </mxCell>
        <mxCell id="57u8Hl91U_zPTX2pg8Y3-9" value="Celery ile task queue eklenir" style="rounded=1;whiteSpace=wrap;html=1;fillColor=#dae8fc;strokeColor=#6c8ebf;" vertex="1" parent="1">
          <mxGeometry x="555" y="1260" width="120" height="60" as="geometry" />
        </mxCell>
        <mxCell id="57u8Hl91U_zPTX2pg8Y3-20" style="edgeStyle=orthogonalEdgeStyle;rounded=0;orthogonalLoop=1;jettySize=auto;html=1;exitX=0.5;exitY=1;exitDx=0;exitDy=0;entryX=0.5;entryY=0;entryDx=0;entryDy=0;" edge="1" parent="1" source="57u8Hl91U_zPTX2pg8Y3-10" target="57u8Hl91U_zPTX2pg8Y3-11">
          <mxGeometry relative="1" as="geometry" />
        </mxCell>
        <mxCell id="57u8Hl91U_zPTX2pg8Y3-10" value="Task queue&#39;de olan tasklar çalıştırılır" style="rounded=1;whiteSpace=wrap;html=1;fillColor=#dae8fc;strokeColor=#6c8ebf;" vertex="1" parent="1">
          <mxGeometry x="560" y="1460" width="120" height="60" as="geometry" />
        </mxCell>
        <mxCell id="57u8Hl91U_zPTX2pg8Y3-11" value="Son" style="ellipse;whiteSpace=wrap;html=1;fillColor=#f8cecc;strokeColor=#b85450;" vertex="1" parent="1">
          <mxGeometry x="560" y="1680" width="120" height="80" as="geometry" />
        </mxCell>
        <mxCell id="57u8Hl91U_zPTX2pg8Y3-18" style="edgeStyle=orthogonalEdgeStyle;rounded=0;orthogonalLoop=1;jettySize=auto;html=1;exitX=0.5;exitY=1;exitDx=0;exitDy=0;entryX=0.567;entryY=-0.017;entryDx=0;entryDy=0;entryPerimeter=0;" edge="1" parent="1" source="57u8Hl91U_zPTX2pg8Y3-8" target="57u8Hl91U_zPTX2pg8Y3-9">
          <mxGeometry relative="1" as="geometry" />
        </mxCell>
      </root>
    </mxGraphModel>
  </diagram>
</mxfile>
